<svg xmlns="http://www.w3.org/2000/svg" fill="none" viewBox="0 0 24 24" id="Lit-Icon--Streamline-Svg-Logos" height="24" width="24">
  <desc>
    Lit Icon Streamline Icon: https://streamlinehq.com
  </desc>
  <path fill="#00e8ff" d="m7.30005 14.350025 1.903925 -3.284675 2.807725 -1.403675 4.698125 4.698125 0.79555 4.53505 -0.805325 4.855175 -4.7 -4.7 -2.796075 -1.8811 -1.903925 -2.8189Z" stroke-width="0.25"></path>
  <path fill="#283198" d="M12.0001 19.05V9.65l4.7 -4.7v9.4l-4.7 4.7Zm-9.4 0 4.7 4.7 0.67575 -4.450425L7.3001 14.35l-2.757 1.74115L2.6001 19.05Z" stroke-width="0.25"></path>
  <path fill="#324fff" d="M7.3001 14.35V4.95l4.7 -4.7v9.4l-4.7 4.7Zm9.4 9.4V14.35l4.7 -4.7v9.4l-4.7 4.7Zm-14.1 -4.7V9.65l4.7 4.7 -4.7 4.7Z" stroke-width="0.25"></path>
  <path fill="#00FFFF" d="M7.30005 23.749975v-9.4l4.7 4.7 -4.7 4.7Z" stroke-width="0.25"></path>
</svg>